PathFileType	4	(X/Y/Z)	C:\Users\WrightLab\Desktop\Jo\P3_11.trc
DataRate	CameraRate	NumFrames	NumMarkers	Units	OrigDataRate	OrigDataStartFrame	OrigNumFrames
100.00	100.00	       17	19	mm	100.00	409	       653
Frame#	Time	Headset_Front			Headset_Back			Headset_Left			Headset_Right			Left_Shoulder			Right_Shoulder			Sternum			C7			Left Elbow			Right Elbow			Left Wrist			Right Wrist			Left ASIS			Right ASIS			S2			Left Knee			Right Knee			Left Ankle			Right Ankle			
		X1	Y1	Z1	X2	Y2	Z2	X3	Y3	Z3	X4	Y4	Z4	X5	Y5	Z5	X6	Y6	Z6	X7	Y7	Z7	X8	Y8	Z8	X9	Y9	Z9	X10	Y10	Z10	X11	Y11	Z11	X12	Y12	Z12	X13	Y13	Z13	X14	Y14	Z14	X15	Y15	Z15	X16	Y16	Z16	X17	Y17	Z17	X18	Y18	Z18	X19	Y19	Z19	

409	4.080	-11.85449	1570.50317	2101.64771	151.03291	1620.20117	1978.63306	-76.35564	1589.86035	1970.55725				247.71474	1379.41064	1957.89636	-92.92348	1391.98828	1841.42212	38.70940	1274.01599	2029.04309				317.21768	1051.94409	1992.42188	-165.94275	1051.50403	1794.03674	275.64960	872.35742	2088.82788	-213.93927	867.34460	1927.99182	137.85916	913.34802	2041.44153	-102.66316	917.41418	1967.74414	81.74200	979.17023	1799.97180	155.75829	493.53799	2036.82336	-127.15868	505.95450	2061.01343	160.59993	161.46292	1998.12683	-31.72417	267.86121	1834.85693	
410	4.090	-14.34208	1571.20862	2107.97144	149.06783	1620.62744	1986.57275	-78.28266	1591.23535	1976.15881				245.87970	1380.01624	1966.58276	-93.19637	1392.78333	1846.62830	36.23294	1274.61475	2035.38525				315.85959	1053.23267	2003.30432	-166.13966	1052.59985	1798.15503	272.58261	872.97473	2099.08203	-215.63364	868.36267	1933.13428	136.93100	913.75684	2047.88452	-103.61588	918.88153	1972.32153	80.95991	980.46155	1803.88611	155.25977	492.96503	2038.04285	-130.34235	509.86017	2071.45337	159.78609	161.65660	1997.76831	-35.11573	263.07486	1856.70703	
411	4.100	-17.66852	1572.18884	2114.88672	147.33032	1621.20178	1994.32544	-79.85495	1591.41003	1982.42114				244.02953	1380.80029	1975.49072	-93.76617	1393.65479	1852.99915	33.64984	1274.64771	2041.49438				314.05914	1054.49292	2016.55823	-166.21884	1052.80334	1804.20703	269.71243	874.39581	2110.63989	-216.80563	869.67841	1938.90405	135.71602	914.16858	2054.22803	-104.88171	920.17499	1977.59253	81.02187	980.55298	1812.78271	155.87100	492.61066	2040.45361	-133.73218	513.28278	2082.79321	159.78381	161.64740	1997.78406	-39.76025	257.92694	1874.63245	
412	4.110	-20.91056	1572.34888	2121.10352	145.12286	1621.96667	2002.27527	-81.74036	1591.72083	1989.07922				242.29921	1381.61206	1984.91626	-94.35971	1394.20496	1857.21399	31.71566	1275.47961	2048.94604				312.46097	1055.56079	2026.85974	-166.60362	1053.46606	1808.66870	266.77542	875.43475	2122.15747	-217.89362	871.06604	1944.86487	133.61409	914.03467	2060.49536	-105.61694	921.00330	1983.38989	80.41755	981.65204	1819.45667	155.67130	492.36026	2040.97339	-136.64636	516.24866	2091.85205	159.06708	162.18010	1997.74951	-44.29028	251.76965	1897.40588	
413	4.120	-24.21008	1572.38110	2127.21973	143.19116	1622.03992	2009.49756	-83.94053	1592.83801	1994.03125				240.12854	1382.12207	1993.65454	-94.90014	1394.80542	1864.25256	29.40645	1276.10413	2055.53540				310.31012	1056.21521	2037.97974	-166.92201	1054.18787	1813.53113	262.83179	875.95776	2132.35840	-220.04106	872.29083	1950.60864	132.88779	913.83502	2066.90942	-106.95756	921.46600	1988.03467	80.41203	981.77191	1825.49854	155.04741	491.86664	2042.14722	-139.69464	519.10388	2102.17676	159.74969	161.88347	1997.56445	-48.81355	244.16911	1917.66553	
414	4.130	-27.40394	1572.69922	2132.87158	140.93564	1622.46716	2017.50842	-86.26701	1593.05310	2000.14197				237.78375	1382.69165	2002.41614	-96.09186	1395.11462	1869.26404	26.68664	1275.88696	2061.43872				308.05496	1057.49536	2049.42505	-167.22705	1054.41992	1818.39526	259.63303	877.58063	2143.75195	-221.63739	872.57928	1954.55566	131.08026	913.44025	2072.31250	-108.39756	922.16650	1993.43140	79.90618	981.98492	1832.79834	154.68735	491.40118	2043.02771	-143.15857	521.41937	2110.08594	158.41460	162.22701	1998.21338	-54.28767	238.00943	1940.30298	
415	4.140	-30.94664	1572.99963	2139.26831	138.42131	1622.88464	2025.08350							235.79553	1383.15356	2011.38037	-96.47513	1395.40625	1875.04749	24.42515	1275.90698	2067.71265				306.12189	1058.10425	2060.13916	-167.78267	1054.85974	1822.84863	255.85307	878.96448	2154.60938	-223.63031	873.74609	1961.14417	129.24049	912.81421	2078.49585	-109.64938	922.23840	1998.97986	78.89265	982.97729	1837.09570	154.24673	490.99930	2043.86377	-146.03253	523.28442	2117.20508	158.41478	162.23584	1998.19531	-60.23009	230.37247	1960.72449	
416	4.150	-34.05863	1572.93286	2144.99487	136.03499	1623.10608	2033.25940							233.42220	1383.20361	2019.42517	-97.45508	1395.89490	1880.86670	22.19161	1276.16760	2074.72607				303.61823	1058.52795	2070.53931	-168.60022	1055.15198	1828.43921	252.27374	879.33966	2164.29541	-225.12735	875.32458	1967.12244	127.97993	913.02173	2085.64380	-110.69114	922.22424	2003.98499	78.44495	983.02631	1842.57703	153.50653	490.53055	2045.00793	-149.22084	524.90814	2124.53882	158.41701	162.23662	1998.19702	-66.20805	223.06998	1984.53760	
417	4.160	-37.84555	1573.11060	2151.13281	133.66048	1622.79346	2040.03125							231.23250	1383.44067	2028.79419	-98.18981	1395.31494	1884.97742	19.71192	1276.23376	2081.52051				301.40781	1059.49707	2081.49146	-169.47423	1054.74536	1833.27124	248.56380	880.08502	2175.28711	-227.18594	876.23810	1973.10950	126.17128	911.33319	2090.97192	-112.25085	921.73846	2008.52600	77.58789	983.51477	1849.25513	154.37749	490.30185	2046.95251	-151.91589	525.66125	2130.49927	158.34558	162.35005	1998.11450	-72.17966	215.29346	2006.34875	
418	4.170	-41.28601	1573.12903	2157.34595	131.04578	1623.11206	2048.25415							228.81195	1383.17883	2036.52380	-99.26639	1395.61157	1892.07666	17.06651	1275.58716	2086.90601				298.78537	1059.28735	2091.41235	-169.80257	1054.82910	1837.34473	244.16141	880.90479	2185.23438	-228.87476	876.36993	1977.84875	124.26575	910.48029	2097.43506	-114.10117	921.90118	2015.01550	76.77154	983.72107	1854.80188	153.70000	489.82690	2048.12817	-155.07841	525.37048	2135.47241	158.34238	162.34105	1998.12854	-79.33217	208.37083	2029.83838	
419	4.180	-45.17202	1572.93213	2163.19507	128.29703	1622.93494	2055.48730							226.66144	1383.44360	2045.49878	-100.62064	1395.28943	1897.51868	14.06060	1275.01733	2093.61157				296.00751	1059.96936	2102.37476				240.52699	881.83685	2195.75317	-231.02707	876.83087	1982.75916	122.47379	910.78821	2104.51563	-115.57584	921.01990	2020.48267	75.50838	983.64697	1862.35315	152.15030	488.67093	2046.61292	-156.44774	525.57880	2141.44409	157.99831	162.32832	1998.39429	-86.61359	202.37993	2051.21753	
420	4.190	-48.68889	1572.48950	2169.29272	125.79257	1622.35254	2062.04443							224.26375	1383.23059	2052.65918	-101.75968	1394.89966	1903.10217	11.93471	1274.87866	2100.77271				293.49048	1060.13184	2111.57739				236.27638	882.81207	2206.04053	-233.43994	876.83344	1988.05371	119.85030	909.83350	2110.46704	-117.26978	920.80170	2026.39319	74.46939	983.76514	1870.25330	151.12540	488.91693	2048.82202	-158.37598	524.77753	2146.63208	157.99940	162.33139	1998.38953	-93.03322	195.05490	2074.04883	
421	4.200	-52.36659	1572.33740	2174.61523	123.48865	1622.15002	2070.01416							221.78218	1383.13269	2061.76758	-102.72656	1394.90601	1908.80811	9.36669	1273.94434	2106.93164				290.53534	1058.87415	2121.12158				231.95261	883.35797	2216.06152	-235.52650	876.90424	1993.01721	117.22289	908.83032	2116.90527	-119.25086	919.67657	2031.60852	73.29353	983.89832	1875.13013	151.04536	491.93033	2054.23657	-159.32516	523.15192	2150.16040	158.01530	162.34096	1998.39319	-101.48753	189.34305	2096.41016	
422	4.210	-56.45794	1572.55017	2181.01343	120.06465	1622.04639	2077.57007							219.16035	1382.21252	2069.25806	-104.58021	1394.29370	1914.53784	6.76463	1272.97791	2112.97046				287.85794	1059.93689	2131.93335				227.92198	884.06848	2226.50757	-237.88283	876.66498	1998.09900	114.83249	909.12500	2124.95190	-121.39148	918.42633	2036.35999	71.76435	983.41711	1881.88098	150.22330	491.14526	2055.83765	-160.69127	521.08954	2153.91382	158.03680	162.35330	1998.39929	-109.29835	184.78633	2118.27686	
423	4.220	-59.64629	1571.72388	2185.62036	117.20553	1621.10913	2083.78296							216.60049	1381.96045	2077.59131	-106.56317	1393.61340	1920.48486	3.72266	1272.07788	2119.34277				284.93564	1059.49902	2141.19067				223.70964	883.48816	2235.33374	-240.23671	876.91003	2003.62256	112.60418	908.16028	2130.66602	-123.66376	917.13641	2041.98352	70.52261	983.02625	1888.30371	149.94972	490.84879	2056.42310	-161.39607	518.47559	2156.18579	157.81487	163.23134	1999.21179	-117.31438	180.37949	2138.31836	
424	4.230	-63.85625	1571.43921	2191.67651	114.46040	1620.24487	2091.46851							214.08379	1380.64392	2084.72534	-108.22735	1392.85718	1927.15967	0.94600	1271.16125	2125.19238				281.18103	1057.52759	2148.43530				219.78986	884.66412	2246.13916	-242.68370	876.43695	2008.96912	109.42868	907.31714	2137.15161	-126.41711	916.63043	2048.91089	68.75305	982.55603	1895.72046	150.04628	489.57111	2058.42920	-162.01477	515.64044	2158.39233	157.85408	163.24341	1999.24487	-126.21392	177.50011	2159.11035	
425	4.240	-68.07191	1571.50977	2197.58716	111.87691	1619.86450	2098.68970							211.29506	1380.04272	2092.44336	-109.08709	1391.69409	1931.81201	-2.16823	1270.44153	2132.40234				278.31775	1057.36206	2157.63086				214.87001	884.97528	2255.80811	-245.30350	876.04401	2014.05042	106.73604	906.10571	2143.40283	-128.84798	914.97217	2054.84058	67.19595	981.10730	1902.40161	149.40207	489.55569	2060.91113	-161.93974	512.37225	2161.07910	158.35419	164.55998	2001.13525	-134.88057	175.38280	2178.64282	
